


$ DEMON TORRENTS $    ########   SERIOUS       UPLOADING!!!!!       ########

          

        

          [[[[ we value your response THE MOST ]]]]






....ALL THE FILES UPLOADED ARE NOT CREATED BY THE UPLOADER....








release info:




UPLOADER : DEMON~THE DARK MASTER(TDM)



info:


- 

General
Complete name : Source.Code.2011.Hind.TSRip.x264.350mb-CRYME.0007-TeamTNT.mkv
Format : Matroska
File size : 331 MiB
Duration : 1h 26mn
Overall bit rate : 537 Kbps
Encoded date : UTC 2011-05-02 07:22:21
Writing application : mkvmerge v4.7.0 ('Just Like You Imagined') built on Apr 21 2011 01:13:14
Writing library : libebml v1.2.0 + libmatroska v1.1.0


Video
ID : 1
Format : MPEG-4 Visual
Format profile : Advanced Simple@L5
Format settings, BVOP : Yes
Format settings, QPel : No
Format settings, GMC : No warppoints
Format settings, Matrix : Default (H.263)
Codec ID : V_MPEG4/ISO/ASP
Codec ID/Info : Advanced Simple Profile
Duration : 1h 26mn
Bit rate : 460 Kbps
Width : 720 pixels
Height : 400 pixels
Display aspect ratio : 16:9
Frame rate : 25.000 fps
Color space : YUV
Chroma subsampling : 4:2:0
Bit depth : 8 bits
Scan type : Progressive
Compression mode : Lossy
Bits/(Pixel*Frame) : 0.064
Stream size : 283 MiB (86%)
Writing library : XviD 1.2.1 (UTC 2008-12-04)


Audio
ID : 2
Format : MPEG Audio
Format version : Version 1
Format profile : Layer 3
Mode : Joint stereo
Mode extension : MS Stereo
Muxing mode : Header stripping
Codec ID : A_MPEG/L3
Codec ID/Hint : MP3
Duration : 1h 26mn
Bit rate mode : Variable
Bit rate : 66.8 Kbps
Minimum bit rate : 32.0 Kbps
Channel(s) : 2 channels
Sampling rate : 32.0 KHz
Compression mode : Lossy
Stream size : 41.2 MiB (12%)
Title : Hindi [CRYME.0007]
Writing library : LAME3.98r
Encoding settings : -m j -V 7 -q 0 -lowpass 14.5 --vbr-new -b 32
Language : Hindi







****check out our teams other releases****
          
http://thepiratebay.org/user/tdkdemon/
 
http://thepiratebay.org/user/demon_89/






##### we are desperate to hear from you[[[[]]]]we live through your comments#####





screen shots:

 
http://bollywoodreleases.info/images/77217625666303959347.jpg

 
http://bollywoodreleases.info/images/48929933746861941735.jpg

 
http://bollywoodreleases.info/images/52171002719597732385.jpg

 
http://bollywoodreleases.info/images/15449913493661605851.jpg